<?xml version="1.0" encoding="utf-8"?>
<!-- Generator: Adobe Illustrator 24.0.1, SVG Export Plug-In . SVG Version: 6.00 Build 0)  -->
<svg version="1.1" id="Livello_1" xmlns="http://www.w3.org/2000/svg" xmlns:xlink="http://www.w3.org/1999/xlink" x="0px" y="0px"
	 viewBox="0 0 286.1 89.6" style="enable-background:new 0 0 286.1 89.6;" xml:space="preserve">
<style type="text/css">
	<!-- .st0{fill-rule:evenodd;clip-rule:evenodd;fill:#E84E0F;} -->
	.st0{fill-rule:evenodd;clip-rule:evenodd;fill:#e84f0d;}
	.st1{fill-rule:evenodd;clip-rule:evenodd;fill:#FFFFFF;}
	.st2{fill:#FFFFFF;}
	.st3{clip-path:url(#SVGID_2_);fill-rule:evenodd;clip-rule:evenodd;fill:#FFFFFF;}
	.st4{clip-path:url(#SVGID_2_);fill:none;stroke:#FFFFFF;stroke-width:0.684;stroke-miterlimit:3.864;}
	.st5{clip-path:url(#SVGID_2_);fill-rule:evenodd;clip-rule:evenodd;fill:#E84E0F;}
	.st6{clip-path:url(#SVGID_2_);fill:none;stroke:#E84E0F;stroke-width:1.15;stroke-miterlimit:3.864;}
	.st7{fill:#1D1D1B;}
</style>
<g>
	<rect x="9.5" y="10.1" class="st0" width="267.5" height="41.8"/>
	<polygon class="st1" points="30.9,45.3 30.9,39.2 27.7,39.2 27.7,33 32.3,33 32.3,28.3 27.7,28.3 27.7,22.9 34.7,22.9 34.7,25.3 
		40.9,25.3 40.9,16.7 14.3,16.7 14.3,22.9 17.5,22.9 17.5,39.2 14.3,39.2 14.3,45.3 	"/>
	<polygon class="st1" points="186.9,45.3 186.9,36.7 180.7,36.7 180.7,39.2 173.7,39.2 173.7,33 178.3,33 178.3,28.3 173.7,28.3 
		173.7,22.9 180.7,22.9 180.7,25.3 186.9,25.3 186.9,16.7 161.1,16.7 161.1,22.9 163.4,22.9 163.4,39.2 161.1,39.2 161.1,45.3 	"/>
	<polygon class="st2" points="272.4,45.3 272.4,34.4 266.2,34.4 266.2,39.2 259.2,39.2 259.2,22.9 261.5,22.9 261.5,16.7 
		246.6,16.7 246.6,22.9 248.9,22.9 248.9,39.2 246.6,39.2 246.6,45.3 	"/>
	<polygon class="st1" points="242.6,45.3 242.6,39.2 240.3,39.2 240.3,22.9 242.6,22.9 242.6,16.7 227.6,16.7 227.6,22.9 230,22.9 
		230,39.2 227.6,39.2 227.6,45.3 	"/>
	<polygon class="st1" points="130.5,16.7 115.4,16.7 115.4,22.9 117.1,22.9 117.1,39.2 115.4,39.2 115.4,45.3 125.1,45.3 
		125.1,39.2 123.4,39.2 123.4,22.9 132.7,45.3 136.7,45.3 145.3,22.9 145.3,39.2 143.6,39.2 143.6,45.3 156.4,45.3 156.4,39.2 
		154.8,39.2 154.8,22.9 156.4,22.9 156.4,16.7 140.6,16.7 136.1,30.4 	"/>
	<g>
		<defs>
			<rect id="SVGID_1_" width="286.1" height="89.6"/>
		</defs>
		<clipPath id="SVGID_2_">
			<use xlink:href="#SVGID_1_"  style="overflow:visible;"/>
		</clipPath>
		<path class="st3" d="M205.8,45.3c4.5,0,8.8-0.4,12.3-3.2c3.5-2.8,4.4-7.2,4.4-11.3c0-1-0.1-2-0.3-3c-0.4-2.1-1-3.9-2.3-5.8
			c-3.3-4.3-7.4-5.2-12.9-5.2h-15.5v6.1h2.4v16.2h-2.4v6.2H205.8z"/>
		<path class="st4" d="M205.8,45.3c4.5,0,8.8-0.4,12.3-3.2c3.5-2.8,4.4-7.2,4.4-11.3c0-1-0.1-2-0.3-3c-0.4-2.1-1-3.9-2.3-5.8
			c-3.3-4.3-7.4-5.2-12.9-5.2h-15.5v6.1h2.4v16.2h-2.4v6.2H205.8z"/>
		<path class="st3" d="M59.8,16.3c-4.3,0-8.5,1.4-11.3,4.3c-3,3.2-3.8,7-3.8,11c0,3.4,1.2,7.5,3.8,10.1c3.2,3.1,6.8,4.2,11.4,4.2
			c4.3,0,8.2-1.2,11.3-4c1.4-1.4,2.3-3,3-4.8c0.8-1.9,0.9-4.1,0.9-6.1C75.2,22.5,69.8,16.3,59.8,16.3"/>
		<path class="st4" d="M59.8,16.3c-4.3,0-8.5,1.4-11.3,4.3c-3,3.2-3.8,7-3.8,11c0,3.4,1.2,7.5,3.8,10.1c3.2,3.1,6.8,4.2,11.4,4.2
			c4.3,0,8.2-1.2,11.3-4c1.4-1.4,2.3-3,3-4.8c0.8-1.9,0.9-4.1,0.9-6.1C75.2,22.5,69.8,16.3,59.8,16.3z"/>
		<path class="st5" d="M60,22.2c1.4,0,2.5,1,3.2,2.8c0.6,1.3,0.8,4.2,0.8,5.8c0,1.2,0,2.6-0.2,3.7c-0.2,1.3-0.5,2.5-1.1,3.5
			c-0.7,1.2-1.7,1.8-2.7,1.8c-3.2,0-4-5.1-4-9c0-1.8,0.1-4,0.7-5.6C57.3,23.4,58.5,22.2,60,22.2"/>
		<path class="st3" d="M95,45.3v-6.1h-2.4v-5.1h1.4c1.2,0,2.5-0.1,3.4,0.7c2,2,4.7,7.9,5.7,10.5h9v-6.1h-1.8l-1.6-2.5
			c-1.9-2.7-2.4-4.6-6.1-5.1c4.3-0.4,7-3.2,7-7.1c0-2.3-0.9-4.8-3-6.2c-2.3-1.5-4.7-1.6-7.4-1.6H80V23h2.4v16.3H80v6.1H95z"/>
		<path class="st4" d="M95,45.3v-6.1h-2.4v-5.1h1.4c1.2,0,2.5-0.1,3.4,0.7c2,2,4.7,7.9,5.7,10.5h9v-6.1h-1.8l-1.6-2.5
			c-1.9-2.7-2.4-4.6-6.1-5.1c4.3-0.4,7-3.2,7-7.1c0-2.3-0.9-4.8-3-6.2c-2.3-1.5-4.7-1.6-7.4-1.6H80V23h2.4v16.3H80v6.1H95z"/>
		<path class="st5" d="M95.5,23c0.9,0,2.1,0,2.8,0.5c0.8,0.6,1.3,1.6,1.3,2.6c0,1-0.3,2-1.2,2.7c-1,0.8-2.3,0.9-3.6,0.9h-2.2V23
			H95.5z"/>
		<path class="st5" d="M204.3,22.9c1.9,0,4.3,0.2,5.7,1.4c1.4,1.3,2.1,2.9,2.4,4.7c0.1,0.7,0.2,1.2,0.2,1.9c0,0.5,0,1-0.1,1.5
			c-0.1,0.6-0.1,1.2-0.3,1.8c-0.2,0.6-0.2,0.9-0.6,1.5c-1.9,3.4-3.7,3.4-7.4,3.4L204.3,22.9z"/>
		<line class="st6" x1="9.5" y1="78.6" x2="277.1" y2="78.6"/>
	</g>
	<g>
		<path class="st7" d="M10.2,69.8V59.6H17v1.2h-5.6v3.1h5.3v1.2h-5.3v3.4h5.8v1.2H10.2z"/>
		<path class="st7" d="M19,69.8V59.6h1.3l5,8v-8h1.2v10.1h-1.3l-5-8v8H19z"/>
		<path class="st7" d="M31.1,69.8v-8.9H28v-1.2h7.5v1.2h-3.2v8.9H31.1z"/>
		<path class="st7" d="M36.9,69.8V59.6h6.9v1.2h-5.6v3.1h5.3v1.2h-5.3v3.4H44v1.2H36.9z"/>
		<path class="st7" d="M55.8,59.6h1.3v5.9c0,1-0.1,1.8-0.3,2.4c-0.2,0.6-0.6,1.1-1.2,1.5c-0.6,0.4-1.3,0.6-2.2,0.6
			c-0.9,0-1.6-0.2-2.2-0.5c-0.6-0.3-1-0.8-1.2-1.4c-0.2-0.6-0.4-1.5-0.4-2.5v-5.9h1.3v5.8c0,0.9,0.1,1.5,0.2,1.9s0.4,0.7,0.8,1
			c0.4,0.2,0.8,0.3,1.4,0.3c0.9,0,1.6-0.2,2-0.7s0.6-1.3,0.6-2.6V59.6z"/>
		<path class="st7" d="M59.2,69.8V59.6h1.3l5,8v-8h1.2v10.1h-1.3l-5-8v8H59.2z"/>
		<path class="st7" d="M69.1,69.8V59.6h1.3v10.1H69.1z"/>
		<path class="st7" d="M79.4,66.2l1.3,0.3c-0.3,1.1-0.7,1.9-1.4,2.5s-1.5,0.9-2.5,0.9c-1,0-1.9-0.2-2.5-0.7
			c-0.6-0.4-1.1-1.1-1.5-1.9c-0.3-0.8-0.5-1.7-0.5-2.7c0-1.1,0.2-2,0.6-2.8c0.4-0.8,0.9-1.4,1.6-1.8c0.7-0.4,1.5-0.6,2.3-0.6
			c1,0,1.8,0.3,2.4,0.8c0.6,0.5,1.1,1.2,1.4,2.2l-1.2,0.3c-0.2-0.7-0.5-1.3-1-1.6c-0.4-0.3-0.9-0.5-1.6-0.5c-0.7,0-1.3,0.2-1.8,0.6
			c-0.5,0.4-0.8,0.9-1,1.5c-0.2,0.6-0.3,1.3-0.3,1.9c0,0.9,0.1,1.6,0.4,2.3c0.2,0.6,0.6,1.1,1.1,1.4c0.5,0.3,1,0.5,1.6,0.5
			c0.7,0,1.3-0.2,1.8-0.6C78.9,67.7,79.2,67.1,79.4,66.2z"/>
		<path class="st7" d="M81.9,64.8c0-1.7,0.4-3,1.3-4c0.8-1,1.9-1.4,3.3-1.4c0.9,0,1.7,0.2,2.4,0.7c0.7,0.4,1.2,1.1,1.6,1.9
			c0.4,0.8,0.6,1.7,0.6,2.7c0,1-0.2,1.9-0.6,2.8c-0.4,0.8-0.9,1.4-1.7,1.8c-0.7,0.4-1.5,0.6-2.3,0.6c-0.9,0-1.7-0.2-2.4-0.7
			c-0.7-0.5-1.2-1.1-1.6-1.9S81.9,65.7,81.9,64.8z M83.2,64.9c0,1.2,0.3,2.2,0.9,2.9c0.6,0.7,1.4,1.1,2.3,1.1c0.9,0,1.7-0.4,2.3-1.1
			c0.6-0.7,0.9-1.7,0.9-3c0-0.8-0.1-1.5-0.4-2.2s-0.6-1.1-1.1-1.4s-1.1-0.5-1.7-0.5c-0.9,0-1.7,0.3-2.3,1
			C83.5,62.2,83.2,63.3,83.2,64.9z"/>
		<path class="st7" d="M96.5,69.8V59.6h6.4v1.2h-5.2V64h4.5v1.2h-4.5v4.6H96.5z"/>
		<path class="st7" d="M104.2,64.8c0-1.7,0.4-3,1.3-4c0.8-1,1.9-1.4,3.3-1.4c0.9,0,1.7,0.2,2.4,0.7c0.7,0.4,1.2,1.1,1.6,1.9
			c0.4,0.8,0.6,1.7,0.6,2.7c0,1-0.2,1.9-0.6,2.8c-0.4,0.8-0.9,1.4-1.7,1.8c-0.7,0.4-1.5,0.6-2.3,0.6c-0.9,0-1.7-0.2-2.4-0.7
			c-0.7-0.5-1.2-1.1-1.6-1.9S104.2,65.7,104.2,64.8z M105.5,64.9c0,1.2,0.3,2.2,0.9,2.9c0.6,0.7,1.4,1.1,2.3,1.1
			c0.9,0,1.7-0.4,2.3-1.1c0.6-0.7,0.9-1.7,0.9-3c0-0.8-0.1-1.5-0.4-2.2s-0.6-1.1-1.1-1.4s-1.1-0.5-1.7-0.5c-0.9,0-1.7,0.3-2.3,1
			C105.8,62.2,105.5,63.3,105.5,64.9z"/>
		<path class="st7" d="M115,69.8V59.6h4.2c0.8,0,1.5,0.1,1.9,0.3c0.4,0.2,0.8,0.5,1.1,1s0.4,1,0.4,1.5c0,0.7-0.2,1.3-0.7,1.8
			s-1.1,0.8-2,0.9c0.3,0.2,0.6,0.3,0.8,0.5c0.4,0.4,0.7,0.8,1,1.3l1.7,2.8h-1.6l-1.3-2.1c-0.4-0.6-0.7-1.1-0.9-1.4
			c-0.2-0.3-0.5-0.5-0.6-0.7s-0.4-0.2-0.6-0.3c-0.1,0-0.4,0-0.7,0h-1.5v4.5H115z M116.3,64.1h2.7c0.6,0,1-0.1,1.4-0.2
			s0.6-0.3,0.7-0.6c0.2-0.3,0.3-0.6,0.3-0.9c0-0.5-0.2-0.9-0.5-1.2s-0.8-0.5-1.5-0.5h-3V64.1z"/>
		<path class="st7" d="M124.6,69.8V59.6h1.9l2.3,7.2c0.2,0.7,0.4,1.2,0.5,1.5c0.1-0.4,0.3-0.9,0.5-1.6l2.3-7h1.7v10.1h-1.2v-8.5
			l-2.8,8.5h-1.1l-2.8-8.6v8.6H124.6z"/>
		<path class="st7" d="M134.7,69.8l3.7-10.1h1.4l3.9,10.1h-1.4l-1.1-3.1h-4l-1,3.1H134.7z M137.5,65.6h3.2l-1-2.8
			c-0.3-0.9-0.5-1.6-0.7-2.1c-0.1,0.6-0.3,1.3-0.5,1.9L137.5,65.6z"/>
		<path class="st7" d="M143.9,69.8v-1.2l4.9-6.5c0.3-0.5,0.7-0.9,1-1.2h-5.3v-1.2h6.8v1.2l-5.3,7l-0.6,0.7h6.1v1.2H143.9z"/>
		<path class="st7" d="M153.1,69.8V59.6h1.3v10.1H153.1z"/>
		<path class="st7" d="M156.2,64.8c0-1.7,0.4-3,1.3-4c0.8-1,1.9-1.4,3.3-1.4c0.9,0,1.7,0.2,2.4,0.7c0.7,0.4,1.2,1.1,1.6,1.9
			c0.4,0.8,0.6,1.7,0.6,2.7c0,1-0.2,1.9-0.6,2.8c-0.4,0.8-0.9,1.4-1.7,1.8c-0.7,0.4-1.5,0.6-2.3,0.6c-0.9,0-1.7-0.2-2.4-0.7
			s-1.2-1.1-1.6-1.9C156.4,66.6,156.2,65.7,156.2,64.8z M157.5,64.9c0,1.2,0.3,2.2,0.9,2.9c0.6,0.7,1.4,1.1,2.3,1.1
			c0.9,0,1.7-0.4,2.3-1.1c0.6-0.7,0.9-1.7,0.9-3c0-0.8-0.1-1.5-0.4-2.2s-0.6-1.1-1.1-1.4c-0.5-0.3-1.1-0.5-1.7-0.5
			c-0.9,0-1.7,0.3-2.3,1C157.9,62.2,157.5,63.3,157.5,64.9z"/>
		<path class="st7" d="M167,69.8V59.6h1.3l5,8v-8h1.2v10.1h-1.3l-5-8v8H167z"/>
		<path class="st7" d="M176.7,69.8V59.6h6.9v1.2H178v3.1h5.3v1.2H178v3.4h5.8v1.2H176.7z"/>
		<path class="st7" d="M189.4,69.8V59.6h6.9v1.2h-5.6v3.1h5.3v1.2h-5.3v3.4h5.8v1.2H189.4z"/>
		<path class="st7" d="M201.6,66.5l1.2-0.1c0.1,0.5,0.2,0.9,0.4,1.2c0.2,0.3,0.5,0.6,1,0.8c0.4,0.2,0.9,0.3,1.5,0.3
			c0.5,0,0.9-0.1,1.3-0.2s0.6-0.4,0.8-0.6c0.2-0.3,0.3-0.6,0.3-0.9c0-0.3-0.1-0.6-0.3-0.8s-0.5-0.4-0.9-0.6
			c-0.3-0.1-0.8-0.3-1.7-0.5s-1.5-0.4-1.8-0.6c-0.5-0.3-0.8-0.6-1-0.9c-0.2-0.4-0.3-0.8-0.3-1.3c0-0.5,0.1-1,0.4-1.4
			c0.3-0.4,0.7-0.8,1.2-1s1.1-0.3,1.7-0.3c0.7,0,1.3,0.1,1.9,0.4c0.5,0.2,1,0.6,1.2,1.1c0.3,0.5,0.4,1,0.5,1.6l-1.2,0.1
			c-0.1-0.6-0.3-1.1-0.7-1.5c-0.4-0.3-0.9-0.5-1.7-0.5c-0.8,0-1.3,0.1-1.7,0.4s-0.5,0.7-0.5,1.1c0,0.4,0.1,0.7,0.4,0.9
			c0.2,0.2,0.9,0.5,1.9,0.7c1,0.2,1.7,0.5,2.1,0.6c0.6,0.3,1,0.6,1.2,1c0.3,0.4,0.4,0.9,0.4,1.4c0,0.5-0.1,1-0.4,1.5
			c-0.3,0.5-0.7,0.8-1.2,1.1c-0.5,0.3-1.2,0.4-1.8,0.4c-0.9,0-1.6-0.1-2.2-0.4c-0.6-0.3-1-0.7-1.4-1.2
			C201.8,67.8,201.6,67.2,201.6,66.5z"/>
		<path class="st7" d="M211.2,69.8V59.6h1.3v10.1H211.2z"/>
		<path class="st7" d="M221.5,66.2l1.3,0.3c-0.3,1.1-0.7,1.9-1.4,2.5s-1.5,0.9-2.5,0.9c-1,0-1.9-0.2-2.5-0.7
			c-0.6-0.4-1.1-1.1-1.5-1.9c-0.3-0.8-0.5-1.7-0.5-2.7c0-1.1,0.2-2,0.6-2.8c0.4-0.8,0.9-1.4,1.6-1.8c0.7-0.4,1.5-0.6,2.3-0.6
			c1,0,1.8,0.3,2.4,0.8c0.6,0.5,1.1,1.2,1.4,2.2l-1.2,0.3c-0.2-0.7-0.5-1.3-1-1.6c-0.4-0.3-0.9-0.5-1.6-0.5c-0.7,0-1.3,0.2-1.8,0.6
			c-0.5,0.4-0.8,0.9-1,1.5s-0.3,1.3-0.3,1.9c0,0.9,0.1,1.6,0.4,2.3s0.6,1.1,1.1,1.4c0.5,0.3,1,0.5,1.6,0.5c0.7,0,1.3-0.2,1.8-0.6
			C221,67.7,221.3,67.1,221.5,66.2z"/>
		<path class="st7" d="M230.6,59.6h1.3v5.9c0,1-0.1,1.8-0.3,2.4c-0.2,0.6-0.6,1.1-1.2,1.5c-0.6,0.4-1.3,0.6-2.2,0.6
			c-0.9,0-1.6-0.2-2.2-0.5s-1-0.8-1.2-1.4c-0.2-0.6-0.4-1.5-0.4-2.5v-5.9h1.3v5.8c0,0.9,0.1,1.5,0.2,1.9s0.4,0.7,0.8,1
			c0.4,0.2,0.8,0.3,1.4,0.3c0.9,0,1.6-0.2,2-0.7s0.6-1.3,0.6-2.6V59.6z"/>
		<path class="st7" d="M234,69.8V59.6h4.2c0.8,0,1.5,0.1,1.9,0.3c0.4,0.2,0.8,0.5,1.1,1c0.3,0.5,0.4,1,0.4,1.5
			c0,0.7-0.2,1.3-0.7,1.8s-1.1,0.8-2,0.9c0.3,0.2,0.6,0.3,0.8,0.5c0.4,0.4,0.7,0.8,1,1.3l1.7,2.8h-1.6l-1.3-2.1
			c-0.4-0.6-0.7-1.1-0.9-1.4c-0.2-0.3-0.5-0.5-0.6-0.7s-0.4-0.2-0.6-0.3c-0.1,0-0.4,0-0.7,0h-1.5v4.5H234z M235.3,64.1h2.7
			c0.6,0,1-0.1,1.4-0.2s0.6-0.3,0.7-0.6c0.2-0.3,0.3-0.6,0.3-0.9c0-0.5-0.2-0.9-0.5-1.2c-0.3-0.3-0.8-0.5-1.5-0.5h-3V64.1z"/>
		<path class="st7" d="M243.7,69.8V59.6h6.9v1.2H245v3.1h5.3v1.2H245v3.4h5.8v1.2H243.7z"/>
		<path class="st7" d="M251.8,69.8v-1.2l4.9-6.5c0.3-0.5,0.7-0.9,1-1.2h-5.3v-1.2h6.8v1.2l-5.3,7l-0.6,0.7h6.1v1.2H251.8z"/>
		<path class="st7" d="M260,69.8v-1.2l4.9-6.5c0.3-0.5,0.7-0.9,1-1.2h-5.3v-1.2h6.8v1.2l-5.3,7l-0.6,0.7h6.1v1.2H260z"/>
		<path class="st7" d="M267.9,69.8l3.7-10.1h1.4l3.9,10.1h-1.4l-1.1-3.1h-4l-1,3.1H267.9z M270.7,65.6h3.2l-1-2.8
			c-0.3-0.9-0.5-1.6-0.7-2.1c-0.1,0.6-0.3,1.3-0.5,1.9L270.7,65.6z"/>
	</g>
</g>
</svg>
